<?xml version="1.0" standalone="no"?><svg xmlns="http://www.w3.org/2000/svg" viewBox="0 0 1440 320"><path fill="#6366f1" fill-opacity="1" d="M0,64L30,96C60,128,120,192,180,213.3C240,235,300,213,360,213.3C420,213,480,235,540,256C600,277,660,299,720,288C780,277,840,235,900,192C960,149,1020,107,1080,74.7C1140,43,1200,21,1260,37.3C1320,53,1380,107,1410,133.3L1440,160L1440,0L1410,0C1380,0,1320,0,1260,0C1200,0,1140,0,1080,0C1020,0,960,0,900,0C840,0,780,0,720,0C660,0,600,0,540,0C480,0,420,0,360,0C300,0,240,0,180,0C120,0,60,0,30,0L0,0Z"></path></svg>